<svg xmlns="http://www.w3.org/2000/svg" xmlns:xlink="http://www.w3.org/1999/xlink" xml:space="preserve" version="1.1" style="shape-rendering:geometricPrecision;text-rendering:geometricPrecision;image-rendering:optimizeQuality;" viewBox="0 0 309 57.5" x="0px" y="0px" fill-rule="evenodd" clip-rule="evenodd"><defs><style type="text/css">
   
    .fil1 {fill:black}
    .fil0 {fill:black;fill-rule:nonzero}
   
  </style></defs><g><path class="fil0" d="M234 0c30,0 30,46 0,46l-211 0c-31,0 -31,-46 0,-46l211 0zm0 3l-211 0c-26,0 -26,40 0,40l211 0c26,0 26,-40 0,-40z"/><path class="fil1" d="M288 2c11,0 21,9 21,21 0,12 -10,21 -21,21 -12,0 -22,-9 -22,-21 0,-12 10,-21 22,-21zm5 24l6 6c2,2 -1,4 -2,2l-6 -6c-4,3 -9,2 -12,-1 -4,-3 -4,-9 0,-13 3,-3 9,-4 13,0 3,3 3,8 1,12z"/><path class="fil1" d="M281 17c-2,2 -2,6 0,8 3,2 6,2 9,0 2,-3 2,-6 -1,-9 -2,-2 -6,-2 -8,1z"/></g><text x="0" y="61" fill="#000000" font-size="5px" font-weight="bold" font-family="'Helvetica Neue', Helvetica, Arial-Unicode, Arial, Sans-serif">Created by OneShoot</text><text x="0" y="66" fill="#000000" font-size="5px" font-weight="bold" font-family="'Helvetica Neue', Helvetica, Arial-Unicode, Arial, Sans-serif">from the Noun Project</text></svg>